<?xml version="1.0" encoding="UTF-8"?>
<svg id="Layer_2" data-name="Layer 2" xmlns="http://www.w3.org/2000/svg" viewBox="0 0 16.68 15.47">
  <g id="Layer_1-2" data-name="Layer 1">
    <path d="M14.24,1.95c-.76-.6-1.64-1.07-2.66-1.43s-2.1-.53-3.24-.53-2.23,.18-3.24,.53-1.9,.83-2.66,1.43c-.76,.6-1.35,1.3-1.79,2.11-.44,.81-.65,1.67-.65,2.58,0,.59,.09,1.15,.27,1.69,.18,.54,.44,1.05,.77,1.52s.73,.91,1.2,1.31,.98,.75,1.54,1.04l-.62,3.26,3.61-2.3c.25,.04,.5,.07,.76,.09,.26,.02,.53,.03,.8,.03,1.15,0,2.23-.17,3.24-.52s1.9-.82,2.66-1.43c.75-.61,1.35-1.31,1.79-2.11,.44-.8,.65-1.66,.65-2.59s-.22-1.77-.65-2.58c-.44-.81-1.03-1.51-1.79-2.11Z"/>
  </g>
</svg>